<svg width="365" height="136" viewBox="0 0 365 136" fill="none" xmlns="http://www.w3.org/2000/svg">
<g filter="url(#filter0_f_618_140)">
<ellipse cx="47.9708" cy="100.084" rx="17.3101" ry="5.03568" fill="black" fill-opacity="0.3"/>
</g>
<path d="M32.2471 32.8232H49.4615L28.3808 57.9119C27.4971 59.7499 28.749 60.3319 29.4855 60.3932H83.0618C85.1239 60.6873 84.9643 62.2312 84.6268 62.9664C82.712 66.7159 78.5511 71.023 76.71 72.7078L47.9707 101.028L19.2877 70.23C18.7807 69.7135 18.281 69.178 17.791 68.6229C15.6906 66.244 13.7673 63.5083 12.2021 60.3932C10.8404 57.6832 9.7497 54.6861 9.0491 51.3869C5.14594 33.0069 13.0689 19.2219 17.5182 14.6269C20.0037 11.0428 37.9546 -6.1426 62.7175 2.31227C83.3444 9.35495 88.0021 24.7053 87.9407 30.9851C87.2964 45.3216 75.053 50.1923 69.4376 50.1923H48.7251L69.9899 24.644C70.5791 23.0266 69.1921 22.561 68.425 22.5303H32.2471C30.5594 22.6835 27.1841 23.9272 27.1841 27.6767C27.1841 31.4263 30.5594 32.67 32.2471 32.8232Z" fill="url(#paint0_linear_618_140)"/>
<path d="M129.41 13.6341V20.5456H115.398V23.9069H128.126V30.3274H115.398V33.6887H129.825V40.6001H107.089V13.6341H129.41Z" fill="#27166D"/>
<path d="M152.679 36.2191C152.679 36.9493 152.716 37.7046 152.792 38.4852C152.893 39.2657 153.157 39.9707 153.585 40.6001H145.956C145.88 40.3735 145.818 40.1092 145.767 39.807C145.717 39.5049 145.692 39.2279 145.692 38.9761V38.7495H145.616C144.81 39.6559 143.854 40.2728 142.746 40.6001C141.663 40.9275 140.517 41.0911 139.309 41.0911C138.352 41.0911 137.458 40.9778 136.627 40.7512C135.797 40.5246 135.066 40.1721 134.437 39.6937C133.807 39.1901 133.304 38.5733 132.926 37.8431C132.574 37.0877 132.397 36.1939 132.397 35.1616C132.397 33.7516 132.712 32.6564 133.342 31.8758C133.996 31.0701 134.815 30.4658 135.797 30.063C136.778 29.635 137.823 29.3454 138.931 29.1943C140.064 29.0433 141.122 28.8922 142.104 28.7411C143.086 28.59 143.891 28.376 144.521 28.0991C145.175 27.8221 145.503 27.3689 145.503 26.7394C145.503 26.0848 145.238 25.619 144.71 25.342C144.206 25.0651 143.652 24.9266 143.048 24.9266C142.469 24.9266 142.003 24.9895 141.651 25.1154C141.298 25.2413 141.008 25.405 140.782 25.6064C140.58 25.8078 140.442 26.0344 140.366 26.2862C140.291 26.5128 140.253 26.7269 140.253 26.9283H133.304C133.354 25.5435 133.694 24.4356 134.324 23.6047C134.953 22.7487 135.746 22.094 136.703 21.6408C137.66 21.1876 138.717 20.8855 139.875 20.7344C141.059 20.5833 142.23 20.5078 143.388 20.5078C145.729 20.5078 147.53 20.7344 148.789 21.1876C150.047 21.6156 150.966 22.1947 151.546 22.9249C152.125 23.6551 152.452 24.486 152.528 25.4176C152.628 26.324 152.679 27.243 152.679 28.1746V36.2191ZM145.503 31.8003C144.798 32.1528 144.118 32.4046 143.463 32.5556C142.809 32.7067 142.217 32.8578 141.688 33.0089C141.185 33.1599 140.782 33.3739 140.48 33.6509C140.178 33.9027 140.026 34.3055 140.026 34.8595C140.026 35.3127 140.241 35.7281 140.669 36.1058C141.122 36.4835 141.688 36.6723 142.368 36.6723C143.224 36.6723 143.954 36.4205 144.559 35.917C145.188 35.4134 145.503 34.6455 145.503 33.6131V31.8003Z" fill="#27166D"/>
<path d="M167.987 26.7017C167.962 26.3995 167.874 26.1226 167.723 25.8708C167.571 25.619 167.37 25.405 167.118 25.2287C166.892 25.0525 166.627 24.914 166.325 24.8133C166.048 24.7126 165.759 24.6622 165.456 24.6622C164.928 24.6622 164.412 24.7629 163.908 24.9644C163.43 25.1406 163.19 25.5435 163.19 26.1729C163.19 26.6261 163.493 26.9535 164.097 27.1549C164.701 27.3563 165.444 27.5451 166.325 27.7214C167.232 27.8725 168.201 28.0613 169.233 28.2879C170.291 28.4893 171.26 28.8167 172.141 29.2699C173.048 29.6979 173.803 30.3022 174.407 31.0827C175.012 31.8632 175.314 32.8956 175.314 34.1796C175.314 35.5393 175.012 36.6723 174.407 37.5787C173.828 38.46 173.06 39.165 172.104 39.6937C171.172 40.1973 170.102 40.5498 168.893 40.7512C167.71 40.9778 166.527 41.0911 165.343 41.0911C164.185 41.0911 163.027 40.9652 161.869 40.7134C160.736 40.4868 159.703 40.0966 158.772 39.5426C157.84 38.9887 157.072 38.2711 156.468 37.3899C155.889 36.5086 155.587 35.4386 155.561 34.1796H162.699C162.725 34.7336 162.951 35.2623 163.379 35.7659C163.807 36.2443 164.55 36.4835 165.608 36.4835C165.859 36.4835 166.124 36.4583 166.401 36.4079C166.703 36.3576 166.98 36.282 167.232 36.1813C167.483 36.0554 167.697 35.8918 167.874 35.6904C168.05 35.4889 168.138 35.2497 168.138 34.9728C168.138 34.6958 168.088 34.4566 167.987 34.2552C167.886 34.0538 167.685 33.8775 167.383 33.7264C167.08 33.5754 166.652 33.4369 166.098 33.311C165.57 33.1851 164.877 33.0466 164.021 32.8956C161.176 32.4172 159.124 31.6996 157.865 30.7428C156.631 29.7608 156.015 28.4264 156.015 26.7394C156.015 25.5057 156.304 24.486 156.883 23.6803C157.487 22.8746 158.243 22.2451 159.149 21.7919C160.081 21.3135 161.088 20.9862 162.171 20.8099C163.253 20.6085 164.286 20.5078 165.268 20.5078C166.325 20.5078 167.408 20.5959 168.516 20.7722C169.623 20.9484 170.631 21.2631 171.537 21.7164C172.443 22.1696 173.199 22.799 173.803 23.6047C174.407 24.4104 174.735 25.4428 174.785 26.7017H167.987Z" fill="#27166D"/>
<path d="M191.373 39.0894C191.071 39.9707 190.731 40.9149 190.354 41.922C189.976 42.9291 189.497 43.7978 188.918 44.528C188.415 45.1322 187.861 45.598 187.257 45.9254C186.652 46.2527 186.01 46.4919 185.33 46.6429C184.651 46.794 183.946 46.8821 183.215 46.9073C182.485 46.9325 181.755 46.9451 181.025 46.9451H177.626V40.9778H180.232C180.861 40.9778 181.365 40.8897 181.743 40.7134C182.145 40.5372 182.347 40.0714 182.347 39.316C182.347 39.165 182.271 38.8628 182.12 38.4096C181.994 37.9312 181.818 37.3773 181.591 36.7478C181.365 36.1184 181.113 35.4512 180.836 34.7462C180.584 34.0412 180.333 33.3739 180.081 32.7445C179.854 32.0898 179.64 31.5233 179.439 31.0449C179.262 30.5666 179.137 30.2266 179.061 30.0252L175.737 20.9988H183.744L186.879 32.2535H186.954L190.127 20.9988H197.869L191.373 39.0894Z" fill="#27166D"/>
<path d="M105.843 61.1457V54.2342H129.259V61.1457H121.705V81.2003H113.397V61.1457H105.843Z" fill="#27166D"/>
<path d="M151.314 76.8192C151.314 77.5494 151.352 78.3047 151.427 79.0853C151.528 79.8658 151.792 80.5708 152.22 81.2003H144.591C144.516 80.9737 144.453 80.7093 144.403 80.4071C144.352 80.105 144.327 79.828 144.327 79.5763V79.3496H144.251C143.446 80.2561 142.489 80.8729 141.381 81.2003C140.298 81.5276 139.153 81.6912 137.944 81.6912C136.987 81.6912 136.094 81.5779 135.263 81.3513C134.432 81.1247 133.702 80.7722 133.072 80.2938C132.443 79.7903 131.939 79.1734 131.562 78.4432C131.209 77.6879 131.033 76.794 131.033 75.7617C131.033 74.3517 131.348 73.2565 131.977 72.476C132.632 71.6702 133.45 71.066 134.432 70.6631C135.414 70.2351 136.459 69.9455 137.567 69.7945C138.7 69.6434 139.757 69.4923 140.739 69.3412C141.721 69.1902 142.527 68.9762 143.156 68.6992C143.811 68.4222 144.138 67.969 144.138 67.3396C144.138 66.6849 143.874 66.2191 143.345 65.9422C142.841 65.6652 142.288 65.5267 141.683 65.5267C141.104 65.5267 140.638 65.5897 140.286 65.7156C139.933 65.8415 139.644 66.0051 139.417 66.2065C139.216 66.408 139.077 66.6346 139.002 66.8864C138.926 67.113 138.888 67.327 138.888 67.5284H131.939C131.99 66.1436 132.329 65.0357 132.959 64.2049C133.588 63.3488 134.382 62.6942 135.338 62.2409C136.295 61.7877 137.353 61.4856 138.511 61.3345C139.694 61.1835 140.865 61.1079 142.023 61.1079C144.365 61.1079 146.165 61.3345 147.424 61.7877C148.683 62.2158 149.602 62.7949 150.181 63.525C150.76 64.2552 151.087 65.0861 151.163 66.0177C151.264 66.9241 151.314 67.8431 151.314 68.7747V76.8192ZM144.138 72.4004C143.433 72.7529 142.753 73.0047 142.099 73.1558C141.444 73.3068 140.852 73.4579 140.324 73.609C139.82 73.7601 139.417 73.9741 139.115 74.251C138.813 74.5028 138.662 74.9057 138.662 75.4596C138.662 75.9128 138.876 76.3282 139.304 76.7059C139.757 77.0836 140.324 77.2724 141.003 77.2724C141.86 77.2724 142.59 77.0206 143.194 76.5171C143.823 76.0135 144.138 75.2456 144.138 74.2133V72.4004Z" fill="#27166D"/>
<path d="M153.404 61.5989H161.637L163.79 65.489L165.98 61.5989H173.987L167.831 70.8897L174.78 81.2003H166.547L163.676 76.4038L160.919 81.2003H152.724L159.56 70.8897L153.404 61.5989Z" fill="#27166D"/>
<path d="M183.907 61.5989V81.2003H176.429V61.5989H183.907Z" fill="#27166D"/>
<path d="M207.527 72.136C207.527 72.9418 207.653 73.5838 207.905 74.0622C208.157 74.5406 208.472 74.9183 208.849 75.1952C209.252 75.4722 209.705 75.661 210.209 75.7617C210.738 75.8373 211.266 75.875 211.795 75.875C212.122 75.875 212.488 75.8499 212.89 75.7995C213.293 75.724 213.671 75.5981 214.023 75.4218C214.376 75.2204 214.666 74.9686 214.892 74.6665C215.119 74.3392 215.232 73.9237 215.232 73.4201C215.232 73.0676 215.144 72.7781 214.968 72.5515C214.791 72.2997 214.489 72.0731 214.061 71.8717C213.633 71.6451 213.042 71.4185 212.286 71.1919C211.531 70.9401 210.574 70.6505 209.416 70.3232C208.358 70.0211 207.276 69.7063 206.168 69.379C205.085 69.0265 204.103 68.5733 203.222 68.0194C202.366 67.4403 201.661 66.7227 201.107 65.8666C200.553 64.9854 200.276 63.8649 200.276 62.5053C200.276 60.9443 200.578 59.6098 201.182 58.502C201.812 57.3689 202.63 56.4373 203.637 55.7072C204.645 54.977 205.803 54.4482 207.112 54.1209C208.421 53.7684 209.768 53.5922 211.153 53.5922C212.613 53.5922 214.011 53.7432 215.345 54.0454C216.68 54.3475 217.863 54.8511 218.895 55.5561C219.928 56.2359 220.759 57.1423 221.388 58.2753C222.018 59.3832 222.358 60.7554 222.408 62.392H214.552C214.552 62.3417 214.552 62.2787 214.552 62.2032C214.577 62.1276 214.59 62.0647 214.59 62.0143C214.59 61.5863 214.477 61.2212 214.25 60.9191C214.023 60.5918 213.734 60.3274 213.381 60.126C213.054 59.9245 212.689 59.7861 212.286 59.7105C211.883 59.6098 211.493 59.5595 211.115 59.5595C210.838 59.5595 210.524 59.5846 210.171 59.635C209.819 59.6853 209.491 59.7735 209.189 59.8994C208.887 60.0252 208.635 60.2015 208.434 60.4281C208.232 60.6547 208.132 60.9443 208.132 61.2968C208.132 61.9766 208.509 62.5053 209.265 62.883C210.02 63.2355 210.964 63.5502 212.097 63.8272C213.256 64.1041 214.502 64.4063 215.836 64.7336C217.171 65.0609 218.405 65.5267 219.538 66.131C220.696 66.7353 221.653 67.541 222.408 68.5481C223.163 69.5553 223.541 70.8897 223.541 72.5515C223.541 74.314 223.176 75.7869 222.446 76.9703C221.715 78.1537 220.759 79.1105 219.575 79.8406C218.392 80.5456 217.057 81.0492 215.572 81.3513C214.086 81.6786 212.588 81.8423 211.078 81.8423C210.574 81.8423 209.932 81.8045 209.151 81.729C208.371 81.6535 207.54 81.4898 206.659 81.238C205.778 80.9862 204.896 80.6463 204.015 80.2183C203.134 79.7903 202.341 79.2112 201.636 78.481C200.931 77.7508 200.352 76.8696 199.898 75.8373C199.445 74.805 199.219 73.5712 199.219 72.136H207.527Z" fill="#27166D"/>
<path d="M232.303 73.0802C232.403 74.2133 232.768 75.1323 233.398 75.8373C234.027 76.5423 234.934 76.8948 236.117 76.8948C236.721 76.8948 237.313 76.7815 237.892 76.5549C238.497 76.3282 238.95 75.9757 239.252 75.4974H246.239C245.861 76.5549 245.332 77.4739 244.653 78.2544C243.973 79.0349 243.18 79.677 242.273 80.1805C241.392 80.6841 240.423 81.0618 239.365 81.3136C238.333 81.5653 237.263 81.6912 236.155 81.6912C234.594 81.6912 233.134 81.4646 231.774 81.0114C230.439 80.5582 229.281 79.9036 228.299 79.0475C227.317 78.1663 226.549 77.0962 225.995 75.8373C225.442 74.5532 225.165 73.0928 225.165 71.4562C225.165 70.0211 225.404 68.6866 225.882 67.4529C226.386 66.1939 227.091 65.0987 227.997 64.1671C228.904 63.2103 229.986 62.4675 231.245 61.9388C232.529 61.3849 233.952 61.1079 235.513 61.1079C237.452 61.1079 239.126 61.3723 240.536 61.901C241.946 62.4298 243.104 63.2103 244.011 64.2426C244.917 65.2498 245.584 66.4961 246.012 67.9816C246.44 69.4671 246.654 71.1667 246.654 73.0802H232.303ZM239.479 69.1902C239.479 68.2838 239.164 67.5158 238.534 66.8864C237.93 66.2317 237.15 65.9044 236.193 65.9044C235.06 65.9044 234.178 66.194 233.549 66.7731C232.92 67.327 232.517 68.1327 232.34 69.1902H239.479Z" fill="#27166D"/>
<path d="M256.96 61.5989V64.7336H257.036C257.64 63.5502 258.37 62.6564 259.227 62.0521C260.083 61.4226 261.19 61.1079 262.55 61.1079C263.255 61.1079 263.985 61.2086 264.741 61.4101V68.0194C264.363 67.8935 263.96 67.7802 263.532 67.6795C263.129 67.5788 262.55 67.5284 261.795 67.5284C260.309 67.5284 259.176 67.9942 258.396 68.9258C257.64 69.8322 257.263 71.3429 257.263 73.4579V81.2003H249.785V61.5989H256.96Z" fill="#27166D"/>
<path d="M270.569 81.2003L264.149 61.5989H272.042L275.102 73.5334H275.177L278.274 61.5989H285.903L279.407 81.2003H270.569Z" fill="#27166D"/>
<path d="M295.181 61.5989V81.2003H287.703V61.5989H295.181Z" fill="#27166D"/>
<path d="M312.117 69.0391C312.042 68.2334 311.765 67.6165 311.286 67.1885C310.833 66.7605 310.204 66.5464 309.398 66.5464C308.668 66.5464 308.089 66.6975 307.661 66.9997C307.233 67.2766 306.905 67.6417 306.679 68.0949C306.452 68.5481 306.301 69.0643 306.226 69.6434C306.15 70.2225 306.112 70.8142 306.112 71.4185C306.112 72.0227 306.15 72.6144 306.226 73.1935C306.301 73.7726 306.452 74.2888 306.679 74.742C306.905 75.1952 307.233 75.5603 307.661 75.8373C308.089 76.1142 308.668 76.2527 309.398 76.2527C310.204 76.2527 310.871 75.9757 311.4 75.4218C311.928 74.8427 312.231 74.1629 312.306 73.3824H319.444C319.268 74.7168 318.878 75.9002 318.273 76.9325C317.694 77.9648 316.952 78.8335 316.045 79.5385C315.164 80.2435 314.132 80.7848 312.948 81.1625C311.79 81.515 310.556 81.6912 309.247 81.6912C307.761 81.6912 306.377 81.452 305.093 80.9737C303.808 80.4701 302.688 79.7777 301.731 78.8964C300.774 77.99 300.019 76.9073 299.465 75.6484C298.911 74.3895 298.634 72.9795 298.634 71.4185C298.634 69.8826 298.911 68.4852 299.465 67.2263C300.019 65.9422 300.774 64.8469 301.731 63.9405C302.688 63.0341 303.808 62.3417 305.093 61.8633C306.377 61.3597 307.761 61.1079 309.247 61.1079C310.531 61.1079 311.752 61.2716 312.91 61.5989C314.069 61.901 315.088 62.3794 315.97 63.0341C316.876 63.6887 317.606 64.5196 318.16 65.5267C318.739 66.5087 319.092 67.6795 319.218 69.0391H312.117Z" fill="#27166D"/>
<path d="M328.861 73.0802C328.961 74.2133 329.327 75.1323 329.956 75.8373C330.585 76.5423 331.492 76.8948 332.675 76.8948C333.28 76.8948 333.871 76.7815 334.45 76.5549C335.055 76.3282 335.508 75.9757 335.81 75.4974H342.797C342.419 76.5549 341.891 77.4739 341.211 78.2544C340.531 79.0349 339.738 79.677 338.831 80.1805C337.95 80.6841 336.981 81.0618 335.923 81.3136C334.891 81.5653 333.821 81.6912 332.713 81.6912C331.152 81.6912 329.692 81.4646 328.332 81.0114C326.998 80.5582 325.839 79.9036 324.857 79.0475C323.875 78.1663 323.107 77.0962 322.554 75.8373C322 74.5532 321.723 73.0928 321.723 71.4562C321.723 70.0211 321.962 68.6866 322.44 67.4529C322.944 66.1939 323.649 65.0987 324.555 64.1671C325.462 63.2103 326.544 62.4675 327.803 61.9388C329.087 61.3849 330.51 61.1079 332.071 61.1079C334.01 61.1079 335.684 61.3723 337.094 61.901C338.504 62.4298 339.662 63.2103 340.569 64.2426C341.475 65.2498 342.142 66.4961 342.57 67.9816C342.998 69.4671 343.212 71.1667 343.212 73.0802H328.861ZM336.037 69.1902C336.037 68.2838 335.722 67.5158 335.092 66.8864C334.488 66.2317 333.708 65.9044 332.751 65.9044C331.618 65.9044 330.737 66.194 330.107 66.7731C329.478 67.327 329.075 68.1327 328.899 69.1902H336.037Z" fill="#27166D"/>
<path d="M357.673 67.3018C357.648 66.9997 357.56 66.7227 357.409 66.4709C357.258 66.2191 357.056 66.0051 356.804 65.8289C356.578 65.6526 356.313 65.5141 356.011 65.4134C355.734 65.3127 355.445 65.2624 355.143 65.2624C354.614 65.2624 354.098 65.3631 353.594 65.5645C353.116 65.7407 352.876 66.1436 352.876 66.7731C352.876 67.2263 353.179 67.5536 353.783 67.755C354.387 67.9564 355.13 68.1453 356.011 68.3215C356.918 68.4726 357.887 68.6614 358.919 68.888C359.977 69.0895 360.946 69.4168 361.827 69.87C362.734 70.298 363.489 70.9023 364.093 71.6828C364.698 72.4634 365 73.4957 365 74.7798C365 76.1394 364.698 77.2724 364.093 78.1789C363.514 79.0601 362.746 79.7651 361.79 80.2938C360.858 80.7974 359.788 81.1499 358.579 81.3513C357.396 81.5779 356.213 81.6912 355.029 81.6912C353.871 81.6912 352.713 81.5653 351.555 81.3136C350.422 81.087 349.389 80.6967 348.458 80.1428C347.526 79.5888 346.758 78.8713 346.154 77.99C345.575 77.1088 345.273 76.0387 345.247 74.7798H352.386C352.411 75.3337 352.637 75.8624 353.065 76.366C353.493 76.8444 354.236 77.0836 355.294 77.0836C355.545 77.0836 355.81 77.0584 356.087 77.0081C356.389 76.9577 356.666 76.8822 356.918 76.7815C357.169 76.6556 357.383 76.4919 357.56 76.2905C357.736 76.0891 357.824 75.8499 357.824 75.5729C357.824 75.2959 357.774 75.0567 357.673 74.8553C357.572 74.6539 357.371 74.4776 357.069 74.3266C356.767 74.1755 356.339 74.037 355.785 73.9111C355.256 73.7852 354.563 73.6468 353.707 73.4957C350.862 73.0173 348.81 72.2997 347.551 71.3429C346.318 70.361 345.701 69.0265 345.701 67.3396C345.701 66.1058 345.99 65.0861 346.569 64.2804C347.174 63.4747 347.929 62.8452 348.835 62.392C349.767 61.9136 350.774 61.5863 351.857 61.4101C352.939 61.2086 353.972 61.1079 354.954 61.1079C356.011 61.1079 357.094 61.196 358.202 61.3723C359.31 61.5485 360.317 61.8633 361.223 62.3165C362.13 62.7697 362.885 63.3992 363.489 64.2049C364.093 65.0106 364.421 66.0429 364.471 67.3018H357.673Z" fill="#27166D"/>
<path d="M184.249 53.9761C184.249 54.9339 183.906 55.8117 183.338 56.494C182.616 57.3595 180.314 60.5854 180.314 60.5854C180.314 60.5854 178.013 57.3595 177.291 56.494C176.723 55.8117 176.38 54.9339 176.38 53.9761C176.38 51.8034 178.142 50.042 180.314 50.042C182.487 50.042 184.249 51.8034 184.249 53.9761Z" fill="#27166D"/>
<path d="M295.348 53.9761C295.348 54.9339 295.006 55.8117 294.437 56.494C293.715 57.3595 291.414 60.5854 291.414 60.5854C291.414 60.5854 289.113 57.3595 288.391 56.494C287.822 55.8117 287.48 54.9339 287.48 53.9761C287.48 51.8034 289.241 50.042 291.414 50.042C293.587 50.042 295.348 51.8034 295.348 53.9761Z" fill="#27166D"/>
<path d="M107.297 98.7131H109.801C110.232 98.7131 110.564 98.6036 110.798 98.3845C111.04 98.1579 111.161 97.8407 111.161 97.4328C111.161 97.0324 111.04 96.7265 110.798 96.515C110.564 96.296 110.232 96.1865 109.801 96.1865H107.297V98.7131ZM105.881 91.779H109.812C110.538 91.779 111.119 91.9452 111.557 92.2775C111.995 92.6099 112.214 93.1122 112.214 93.7844C112.214 94.1923 112.113 94.5436 111.909 94.8382C111.712 95.1252 111.429 95.348 111.059 95.5066V95.5293C111.557 95.635 111.935 95.873 112.192 96.2431C112.449 96.6057 112.577 97.0627 112.577 97.6141C112.577 97.9313 112.52 98.2297 112.407 98.5092C112.294 98.7811 112.116 99.019 111.875 99.223C111.633 99.4194 111.323 99.578 110.945 99.6988C110.568 99.8121 110.118 99.8688 109.597 99.8688H105.881V91.779ZM107.297 95.1667H109.609C109.948 95.1667 110.232 95.0723 110.458 94.8835C110.685 94.6871 110.798 94.4076 110.798 94.045C110.798 93.6371 110.696 93.3501 110.492 93.1839C110.288 93.0178 109.994 92.9347 109.609 92.9347H107.297V95.1667Z" fill="#F62B6D"/>
<path d="M117.088 95.4613H119.41C119.864 95.4613 120.207 95.3556 120.441 95.1441C120.676 94.925 120.793 94.6002 120.793 94.1697C120.793 93.9128 120.755 93.7051 120.679 93.5465C120.604 93.3803 120.498 93.2519 120.362 93.1613C120.234 93.0706 120.083 93.0102 119.909 92.98C119.743 92.9498 119.569 92.9347 119.388 92.9347H117.088V95.4613ZM115.671 91.779H119.535C120.426 91.779 121.095 91.9716 121.54 92.3568C121.986 92.7421 122.209 93.2784 122.209 93.9657C122.209 94.351 122.152 94.672 122.039 94.9288C121.926 95.1781 121.793 95.382 121.642 95.5406C121.491 95.6917 121.34 95.8012 121.189 95.8692C121.046 95.9372 120.94 95.9825 120.872 96.0052V96.0278C120.993 96.0429 121.121 96.0807 121.257 96.1411C121.401 96.2016 121.533 96.2998 121.654 96.4357C121.775 96.5641 121.873 96.7341 121.948 96.9456C122.031 97.1571 122.073 97.4215 122.073 97.7387C122.073 98.2146 122.107 98.6489 122.175 99.0417C122.25 99.4269 122.364 99.7026 122.515 99.8688H120.997C120.891 99.6951 120.827 99.5024 120.804 99.2909C120.789 99.0794 120.781 98.8755 120.781 98.6791C120.781 98.309 120.759 97.9917 120.713 97.7274C120.668 97.4554 120.585 97.2326 120.464 97.0589C120.343 96.8776 120.177 96.7454 119.966 96.6623C119.762 96.5792 119.497 96.5377 119.172 96.5377H117.088V99.8688H115.671V91.779Z" fill="#F62B6D"/>
<path d="M125.462 91.779H126.878V99.8688H125.462V91.779Z" fill="#F62B6D"/>
<path d="M130.371 91.779H131.867L135.561 97.7387H135.583V91.779H136.932V99.8688H135.436L131.754 93.9204H131.72V99.8688H130.371V91.779Z" fill="#F62B6D"/>
<path d="M147.477 99.8688H146.57L146.355 98.917C145.977 99.3476 145.6 99.646 145.222 99.8121C144.844 99.9783 144.41 100.061 143.919 100.061C143.315 100.061 142.771 99.9519 142.287 99.7328C141.811 99.5062 141.407 99.2003 141.075 98.8151C140.743 98.4298 140.486 97.9804 140.305 97.4668C140.131 96.9531 140.044 96.4055 140.044 95.8239C140.044 95.2498 140.131 94.706 140.305 94.1923C140.486 93.6787 140.743 93.2293 141.075 92.844C141.407 92.4588 141.811 92.1529 142.287 91.9263C142.771 91.6997 143.315 91.5864 143.919 91.5864C144.357 91.5864 144.772 91.6468 145.165 91.7676C145.566 91.881 145.921 92.0547 146.23 92.2888C146.54 92.5154 146.797 92.8025 147.001 93.1499C147.205 93.4974 147.333 93.8977 147.386 94.351H146.004C145.966 94.0866 145.883 93.8562 145.754 93.6598C145.634 93.4559 145.479 93.2859 145.29 93.1499C145.101 93.014 144.889 92.912 144.655 92.844C144.421 92.776 144.176 92.7421 143.919 92.7421C143.488 92.7421 143.114 92.8289 142.797 93.0026C142.487 93.1764 142.234 93.4105 142.038 93.7051C141.842 93.9922 141.694 94.3207 141.596 94.6909C141.506 95.061 141.46 95.4387 141.46 95.8239C141.46 96.2091 141.506 96.5868 141.596 96.9569C141.694 97.327 141.842 97.6594 142.038 97.954C142.234 98.241 142.487 98.4714 142.797 98.6451C143.114 98.8189 143.488 98.9057 143.919 98.9057C144.652 98.9057 145.207 98.7131 145.584 98.3279C145.97 97.9351 146.17 97.3875 146.185 96.685H144.032V95.6086H147.477V99.8688Z" fill="#F62B6D"/>
<path d="M150.828 91.779H152.244V99.8688H150.828V91.779Z" fill="#F62B6D"/>
<path d="M155.738 91.779H157.233L160.927 97.7387H160.95V91.779H162.298V99.8688H160.802L157.12 93.9204H157.086V99.8688H155.738V91.779Z" fill="#F62B6D"/>
<path d="M172.843 99.8688H171.936L171.721 98.917C171.343 99.3476 170.966 99.646 170.588 99.8121C170.21 99.9783 169.776 100.061 169.285 100.061C168.681 100.061 168.137 99.9519 167.653 99.7328C167.178 99.5062 166.773 99.2003 166.441 98.8151C166.109 98.4298 165.852 97.9804 165.671 97.4668C165.497 96.9531 165.41 96.4055 165.41 95.8239C165.41 95.2498 165.497 94.706 165.671 94.1923C165.852 93.6787 166.109 93.2293 166.441 92.844C166.773 92.4588 167.178 92.1529 167.653 91.9263C168.137 91.6997 168.681 91.5864 169.285 91.5864C169.723 91.5864 170.139 91.6468 170.531 91.7676C170.932 91.881 171.287 92.0547 171.596 92.2888C171.906 92.5154 172.163 92.8025 172.367 93.1499C172.571 93.4974 172.699 93.8977 172.752 94.351H171.37C171.332 94.0866 171.249 93.8562 171.12 93.6598C171 93.4559 170.845 93.2859 170.656 93.1499C170.467 93.014 170.256 92.912 170.021 92.844C169.787 92.776 169.542 92.7421 169.285 92.7421C168.854 92.7421 168.481 92.8289 168.163 93.0026C167.854 93.1764 167.601 93.4105 167.404 93.7051C167.208 93.9922 167.06 94.3207 166.962 94.6909C166.872 95.061 166.826 95.4387 166.826 95.8239C166.826 96.2091 166.872 96.5868 166.962 96.9569C167.06 97.327 167.208 97.6594 167.404 97.954C167.601 98.241 167.854 98.4714 168.163 98.6451C168.481 98.8189 168.854 98.9057 169.285 98.9057C170.018 98.9057 170.573 98.7131 170.95 98.3279C171.336 97.9351 171.536 97.3875 171.551 96.685H169.398V95.6086H172.843V99.8688Z" fill="#F62B6D"/>
<path d="M183.268 96.6963L180.231 91.779H181.874L184.016 95.4047L186.123 91.779H187.709L184.684 96.6963V99.8688H183.268V96.6963Z" fill="#F62B6D"/>
<path d="M193.765 91.5864C194.369 91.5864 194.909 91.6997 195.385 91.9263C195.868 92.1529 196.276 92.4588 196.608 92.844C196.941 93.2293 197.194 93.6787 197.368 94.1923C197.549 94.706 197.639 95.2498 197.639 95.8239C197.639 96.4055 197.549 96.9531 197.368 97.4668C197.194 97.9804 196.941 98.4298 196.608 98.8151C196.276 99.2003 195.868 99.5062 195.385 99.7328C194.909 99.9519 194.369 100.061 193.765 100.061C193.16 100.061 192.616 99.9519 192.133 99.7328C191.657 99.5062 191.253 99.2003 190.921 98.8151C190.588 98.4298 190.331 97.9804 190.15 97.4668C189.976 96.9531 189.89 96.4055 189.89 95.8239C189.89 95.2498 189.976 94.706 190.15 94.1923C190.331 93.6787 190.588 93.2293 190.921 92.844C191.253 92.4588 191.657 92.1529 192.133 91.9263C192.616 91.6997 193.16 91.5864 193.765 91.5864ZM193.765 92.7421C193.334 92.7421 192.96 92.8289 192.643 93.0026C192.333 93.1764 192.08 93.4105 191.884 93.7051C191.687 93.9922 191.54 94.3207 191.442 94.6909C191.351 95.061 191.306 95.4387 191.306 95.8239C191.306 96.2091 191.351 96.5868 191.442 96.9569C191.54 97.327 191.687 97.6594 191.884 97.954C192.08 98.241 192.333 98.4714 192.643 98.6451C192.96 98.8189 193.334 98.9057 193.765 98.9057C194.195 98.9057 194.565 98.8189 194.875 98.6451C195.192 98.4714 195.449 98.241 195.645 97.954C195.842 97.6594 195.985 97.327 196.076 96.9569C196.174 96.5868 196.223 96.2091 196.223 95.8239C196.223 95.4387 196.174 95.061 196.076 94.6909C195.985 94.3207 195.842 93.9922 195.645 93.7051C195.449 93.4105 195.192 93.1764 194.875 93.0026C194.565 92.8289 194.195 92.7421 193.765 92.7421Z" fill="#F62B6D"/>
<path d="M200.651 91.779H202.067V96.4924C202.067 96.7643 202.078 97.04 202.101 97.3195C202.131 97.599 202.207 97.852 202.328 98.0786C202.456 98.2977 202.645 98.4789 202.894 98.6225C203.151 98.766 203.51 98.8377 203.97 98.8377C204.431 98.8377 204.786 98.766 205.035 98.6225C205.292 98.4789 205.481 98.2977 205.602 98.0786C205.73 97.852 205.806 97.599 205.829 97.3195C205.859 97.04 205.874 96.7643 205.874 96.4924V91.779H207.29V96.9569C207.29 97.4781 207.211 97.9313 207.052 98.3165C206.894 98.7018 206.667 99.0266 206.372 99.2909C206.085 99.5478 205.738 99.7404 205.33 99.8688C204.922 99.9972 204.469 100.061 203.97 100.061C203.472 100.061 203.019 99.9972 202.611 99.8688C202.203 99.7404 201.852 99.5478 201.557 99.2909C201.27 99.0266 201.047 98.7018 200.889 98.3165C200.73 97.9313 200.651 97.4781 200.651 96.9569V91.779Z" fill="#F62B6D"/>
<path d="M212.147 95.4613H214.47C214.923 95.4613 215.267 95.3556 215.501 95.1441C215.735 94.925 215.852 94.6002 215.852 94.1697C215.852 93.9128 215.814 93.7051 215.739 93.5465C215.663 93.3803 215.558 93.2519 215.422 93.1613C215.293 93.0706 215.142 93.0102 214.969 92.98C214.802 92.9498 214.629 92.9347 214.447 92.9347H212.147V95.4613ZM210.731 91.779H214.595C215.486 91.779 216.154 91.9716 216.6 92.3568C217.046 92.7421 217.269 93.2784 217.269 93.9657C217.269 94.351 217.212 94.672 217.099 94.9288C216.985 95.1781 216.853 95.382 216.702 95.5406C216.551 95.6917 216.4 95.8012 216.249 95.8692C216.105 95.9372 216 95.9825 215.932 96.0052V96.0278C216.052 96.0429 216.181 96.0807 216.317 96.1411C216.46 96.2016 216.592 96.2998 216.713 96.4357C216.834 96.5641 216.932 96.7341 217.008 96.9456C217.091 97.1571 217.133 97.4215 217.133 97.7387C217.133 98.2146 217.167 98.6489 217.235 99.0417C217.31 99.4269 217.423 99.7026 217.574 99.8688H216.056C215.95 99.6951 215.886 99.5024 215.864 99.2909C215.848 99.0794 215.841 98.8755 215.841 98.6791C215.841 98.309 215.818 97.9917 215.773 97.7274C215.728 97.4554 215.645 97.2326 215.524 97.0589C215.403 96.8776 215.237 96.7454 215.025 96.6623C214.821 96.5792 214.557 96.5377 214.232 96.5377H212.147V99.8688H210.731V91.779Z" fill="#F62B6D"/>
<path d="M225.488 91.779H226.904V98.6451H231.017V99.8688H225.488V91.779Z" fill="#F62B6D"/>
<path d="M237.251 91.5864C237.855 91.5864 238.395 91.6997 238.871 91.9263C239.355 92.1529 239.763 92.4588 240.095 92.844C240.427 93.2293 240.68 93.6787 240.854 94.1923C241.035 94.706 241.126 95.2498 241.126 95.8239C241.126 96.4055 241.035 96.9531 240.854 97.4668C240.68 97.9804 240.427 98.4298 240.095 98.8151C239.763 99.2003 239.355 99.5062 238.871 99.7328C238.395 99.9519 237.855 100.061 237.251 100.061C236.647 100.061 236.103 99.9519 235.62 99.7328C235.144 99.5062 234.74 99.2003 234.407 98.8151C234.075 98.4298 233.818 97.9804 233.637 97.4668C233.463 96.9531 233.376 96.4055 233.376 95.8239C233.376 95.2498 233.463 94.706 233.637 94.1923C233.818 93.6787 234.075 93.2293 234.407 92.844C234.74 92.4588 235.144 92.1529 235.62 91.9263C236.103 91.6997 236.647 91.5864 237.251 91.5864ZM237.251 92.7421C236.821 92.7421 236.447 92.8289 236.129 93.0026C235.82 93.1764 235.567 93.4105 235.37 93.7051C235.174 93.9922 235.027 94.3207 234.928 94.6909C234.838 95.061 234.792 95.4387 234.792 95.8239C234.792 96.2091 234.838 96.5868 234.928 96.9569C235.027 97.327 235.174 97.6594 235.37 97.954C235.567 98.241 235.82 98.4714 236.129 98.6451C236.447 98.8189 236.821 98.9057 237.251 98.9057C237.682 98.9057 238.052 98.8189 238.361 98.6451C238.679 98.4714 238.936 98.241 239.132 97.954C239.328 97.6594 239.472 97.327 239.562 96.9569C239.661 96.5868 239.71 96.2091 239.71 95.8239C239.71 95.4387 239.661 95.061 239.562 94.6909C239.472 94.3207 239.328 93.9922 239.132 93.7051C238.936 93.4105 238.679 93.1764 238.361 93.0026C238.052 92.8289 237.682 92.7421 237.251 92.7421Z" fill="#F62B6D"/>
<path d="M243.31 91.779H244.783L246.811 98.1806H246.834L248.907 91.779H250.346L247.582 99.8688H246.007L243.31 91.779Z" fill="#F62B6D"/>
<path d="M252.967 91.779H258.791V93.0026H254.383V95.1214H258.462V96.2771H254.383V98.6451H258.87V99.8688H252.967V91.779Z" fill="#F62B6D"/>
<path d="M263.333 98.7131H264.727C265.278 98.7131 265.728 98.6413 266.075 98.4978C266.43 98.3468 266.706 98.1428 266.902 97.886C267.106 97.6216 267.242 97.3157 267.31 96.9682C267.386 96.6132 267.423 96.2318 267.423 95.8239C267.423 95.416 267.386 95.0383 267.31 94.6909C267.242 94.3358 267.106 94.0299 266.902 93.7731C266.706 93.5087 266.43 93.3048 266.075 93.1613C265.728 93.0102 265.278 92.9347 264.727 92.9347H263.333V98.7131ZM261.917 91.779H265.271C265.89 91.779 266.426 91.8847 266.879 92.0962C267.333 92.3077 267.703 92.5985 267.99 92.9687C268.277 93.3312 268.488 93.758 268.624 94.249C268.768 94.74 268.84 95.2649 268.84 95.8239C268.84 96.3828 268.768 96.9078 268.624 97.3988C268.488 97.8898 268.277 98.3203 267.99 98.6904C267.703 99.053 267.333 99.34 266.879 99.5515C266.426 99.763 265.89 99.8688 265.271 99.8688H261.917V91.779Z" fill="#F62B6D"/>
<path d="M280.317 91.5864C280.921 91.5864 281.462 91.6997 281.937 91.9263C282.421 92.1529 282.829 92.4588 283.161 92.844C283.493 93.2293 283.746 93.6787 283.92 94.1923C284.101 94.706 284.192 95.2498 284.192 95.8239C284.192 96.4055 284.101 96.9531 283.92 97.4668C283.746 97.9804 283.493 98.4298 283.161 98.8151C282.829 99.2003 282.421 99.5062 281.937 99.7328C281.462 99.9519 280.921 100.061 280.317 100.061C279.713 100.061 279.169 99.9519 278.686 99.7328C278.21 99.5062 277.806 99.2003 277.473 98.8151C277.141 98.4298 276.884 97.9804 276.703 97.4668C276.529 96.9531 276.442 96.4055 276.442 95.8239C276.442 95.2498 276.529 94.706 276.703 94.1923C276.884 93.6787 277.141 93.2293 277.473 92.844C277.806 92.4588 278.21 92.1529 278.686 91.9263C279.169 91.6997 279.713 91.5864 280.317 91.5864ZM280.317 92.7421C279.887 92.7421 279.513 92.8289 279.195 93.0026C278.886 93.1764 278.633 93.4105 278.436 93.7051C278.24 93.9922 278.093 94.3207 277.994 94.6909C277.904 95.061 277.858 95.4387 277.858 95.8239C277.858 96.2091 277.904 96.5868 277.994 96.9569C278.093 97.327 278.24 97.6594 278.436 97.954C278.633 98.241 278.886 98.4714 279.195 98.6451C279.513 98.8189 279.887 98.9057 280.317 98.9057C280.748 98.9057 281.118 98.8189 281.428 98.6451C281.745 98.4714 282.002 98.241 282.198 97.954C282.394 97.6594 282.538 97.327 282.629 96.9569C282.727 96.5868 282.776 96.2091 282.776 95.8239C282.776 95.4387 282.727 95.061 282.629 94.6909C282.538 94.3207 282.394 93.9922 282.198 93.7051C282.002 93.4105 281.745 93.1764 281.428 93.0026C281.118 92.8289 280.748 92.7421 280.317 92.7421Z" fill="#F62B6D"/>
<path d="M287.237 91.779H288.733L292.427 97.7387H292.449V91.779H293.798V99.8688H292.302L288.62 93.9204H288.586V99.8688H287.237V91.779Z" fill="#F62B6D"/>
<path d="M297.284 91.779H303.107V93.0026H298.7V95.1214H302.779V96.2771H298.7V98.6451H303.187V99.8688H297.284V91.779Z" fill="#F62B6D"/>
<path d="M316.661 94.351C316.6 94.1168 316.517 93.9015 316.411 93.7051C316.306 93.5087 316.17 93.3388 316.003 93.1953C315.837 93.0517 315.641 92.9422 315.414 92.8667C315.195 92.7836 314.938 92.7421 314.644 92.7421C314.213 92.7421 313.839 92.8289 313.522 93.0026C313.212 93.1764 312.959 93.4105 312.763 93.7051C312.567 93.9922 312.419 94.3207 312.321 94.6909C312.231 95.061 312.185 95.4387 312.185 95.8239C312.185 96.2091 312.231 96.5868 312.321 96.9569C312.419 97.327 312.567 97.6594 312.763 97.954C312.959 98.241 313.212 98.4714 313.522 98.6451C313.839 98.8189 314.213 98.9057 314.644 98.9057C314.961 98.9057 315.241 98.8528 315.482 98.7471C315.724 98.6338 315.932 98.4827 316.105 98.2939C316.279 98.0975 316.415 97.8709 316.513 97.6141C316.612 97.3572 316.676 97.0815 316.706 96.787H318.088C318.058 97.2704 317.952 97.7123 317.771 98.1126C317.597 98.5129 317.359 98.8604 317.057 99.155C316.755 99.442 316.4 99.6648 315.992 99.8235C315.584 99.9821 315.135 100.061 314.644 100.061C314.04 100.061 313.496 99.9519 313.012 99.7328C312.536 99.5062 312.132 99.2003 311.8 98.8151C311.468 98.4298 311.211 97.9804 311.03 97.4668C310.856 96.9531 310.769 96.4055 310.769 95.8239C310.769 95.2498 310.856 94.706 311.03 94.1923C311.211 93.6787 311.468 93.2293 311.8 92.844C312.132 92.4588 312.536 92.1529 313.012 91.9263C313.496 91.6997 314.04 91.5864 314.644 91.5864C315.097 91.5864 315.524 91.6506 315.924 91.779C316.325 91.8998 316.676 92.0811 316.978 92.3228C317.288 92.557 317.537 92.8478 317.726 93.1953C317.915 93.5352 318.032 93.9204 318.077 94.351H316.661Z" fill="#F62B6D"/>
<path d="M321.189 91.779H322.605V98.6451H326.718V99.8688H321.189V91.779Z" fill="#F62B6D"/>
<path d="M332.952 91.5864C333.557 91.5864 334.097 91.6997 334.573 91.9263C335.056 92.1529 335.464 92.4588 335.796 92.844C336.129 93.2293 336.382 93.6787 336.555 94.1923C336.737 94.706 336.827 95.2498 336.827 95.8239C336.827 96.4055 336.737 96.9531 336.555 97.4668C336.382 97.9804 336.129 98.4298 335.796 98.8151C335.464 99.2003 335.056 99.5062 334.573 99.7328C334.097 99.9519 333.557 100.061 332.952 100.061C332.348 100.061 331.804 99.9519 331.321 99.7328C330.845 99.5062 330.441 99.2003 330.109 98.8151C329.776 98.4298 329.519 97.9804 329.338 97.4668C329.164 96.9531 329.077 96.4055 329.077 95.8239C329.077 95.2498 329.164 94.706 329.338 94.1923C329.519 93.6787 329.776 93.2293 330.109 92.844C330.441 92.4588 330.845 92.1529 331.321 91.9263C331.804 91.6997 332.348 91.5864 332.952 91.5864ZM332.952 92.7421C332.522 92.7421 332.148 92.8289 331.831 93.0026C331.521 93.1764 331.268 93.4105 331.072 93.7051C330.875 93.9922 330.728 94.3207 330.63 94.6909C330.539 95.061 330.494 95.4387 330.494 95.8239C330.494 96.2091 330.539 96.5868 330.63 96.9569C330.728 97.327 330.875 97.6594 331.072 97.954C331.268 98.241 331.521 98.4714 331.831 98.6451C332.148 98.8189 332.522 98.9057 332.952 98.9057C333.383 98.9057 333.753 98.8189 334.063 98.6451C334.38 98.4714 334.637 98.241 334.833 97.954C335.03 97.6594 335.173 97.327 335.264 96.9569C335.362 96.5868 335.411 96.2091 335.411 95.8239C335.411 95.4387 335.362 95.061 335.264 94.6909C335.173 94.3207 335.03 93.9922 334.833 93.7051C334.637 93.4105 334.38 93.1764 334.063 93.0026C333.753 92.8289 333.383 92.7421 332.952 92.7421Z" fill="#F62B6D"/>
<path d="M340.858 97.1722C340.858 97.4819 340.911 97.7463 341.017 97.9653C341.123 98.1844 341.27 98.3656 341.459 98.5092C341.648 98.6451 341.863 98.7471 342.105 98.8151C342.354 98.8755 342.622 98.9057 342.909 98.9057C343.219 98.9057 343.483 98.8717 343.702 98.8037C343.921 98.7282 344.099 98.6338 344.235 98.5205C344.371 98.4072 344.469 98.2788 344.529 98.1353C344.59 97.9842 344.62 97.8331 344.62 97.682C344.62 97.3724 344.548 97.1457 344.405 97.0022C344.269 96.8512 344.118 96.7454 343.951 96.685C343.664 96.5792 343.328 96.481 342.943 96.3904C342.565 96.2922 342.097 96.1676 341.538 96.0165C341.191 95.9259 340.9 95.8088 340.666 95.6653C340.439 95.5142 340.258 95.348 340.122 95.1667C339.986 94.9854 339.888 94.7928 339.827 94.5889C339.774 94.3849 339.748 94.1772 339.748 93.9657C339.748 93.5578 339.831 93.2066 339.997 92.912C340.171 92.6099 340.398 92.3606 340.677 92.1642C340.956 91.9678 341.274 91.8243 341.629 91.7337C341.984 91.6355 342.343 91.5864 342.705 91.5864C343.128 91.5864 343.525 91.643 343.895 91.7563C344.272 91.8621 344.601 92.0245 344.881 92.2435C345.168 92.4626 345.394 92.7345 345.56 93.0593C345.727 93.3765 345.81 93.7467 345.81 94.1697H344.393C344.356 93.6485 344.178 93.2821 343.861 93.0706C343.544 92.8516 343.139 92.7421 342.648 92.7421C342.482 92.7421 342.312 92.7609 342.139 92.7987C341.965 92.8289 341.806 92.8856 341.663 92.9687C341.519 93.0442 341.398 93.1499 341.3 93.2859C341.21 93.4219 341.164 93.5918 341.164 93.7958C341.164 94.0677 341.232 94.2792 341.368 94.4303C341.512 94.5813 341.723 94.706 342.003 94.8042C342.282 94.9024 342.626 94.9968 343.034 95.0874C343.449 95.1781 343.925 95.3027 344.461 95.4613C344.726 95.5444 344.956 95.6577 345.152 95.8012C345.349 95.9447 345.511 96.1109 345.64 96.2998C345.776 96.481 345.874 96.6774 345.934 96.8889C346.002 97.1004 346.036 97.3119 346.036 97.5234C346.036 97.9766 345.942 98.3656 345.753 98.6904C345.572 99.0077 345.33 99.2683 345.028 99.4722C344.726 99.6762 344.382 99.8235 343.997 99.9141C343.612 100.012 343.219 100.061 342.818 100.061C342.358 100.061 341.923 100.005 341.515 99.8915C341.108 99.7781 340.753 99.6044 340.45 99.3703C340.148 99.1361 339.907 98.8377 339.725 98.4752C339.544 98.105 339.45 97.6707 339.442 97.1722H340.858Z" fill="#F62B6D"/>
<path d="M349.089 91.779H354.913V93.0026H350.505V95.1214H354.584V96.2771H350.505V98.6451H354.992V99.8688H349.089V91.779Z" fill="#F62B6D"/>
<path d="M359.455 95.4613H361.778C362.231 95.4613 362.574 95.3556 362.809 95.1441C363.043 94.925 363.16 94.6002 363.16 94.1697C363.16 93.9128 363.122 93.7051 363.047 93.5465C362.971 93.3803 362.865 93.2519 362.729 93.1613C362.601 93.0706 362.45 93.0102 362.276 92.98C362.11 92.9498 361.936 92.9347 361.755 92.9347H359.455V95.4613ZM358.039 91.779H361.902C362.794 91.779 363.462 91.9716 363.908 92.3568C364.353 92.7421 364.576 93.2784 364.576 93.9657C364.576 94.351 364.52 94.672 364.406 94.9288C364.293 95.1781 364.161 95.382 364.01 95.5406C363.859 95.6917 363.708 95.8012 363.556 95.8692C363.413 95.9372 363.307 95.9825 363.239 96.0052V96.0278C363.36 96.0429 363.488 96.0807 363.624 96.1411C363.768 96.2016 363.9 96.2998 364.021 96.4357C364.142 96.5641 364.24 96.7341 364.316 96.9456C364.399 97.1571 364.44 97.4215 364.44 97.7387C364.44 98.2146 364.474 98.6489 364.542 99.0417C364.618 99.4269 364.731 99.7026 364.882 99.8688H363.364C363.258 99.6951 363.194 99.5024 363.171 99.2909C363.156 99.0794 363.149 98.8755 363.149 98.6791C363.149 98.309 363.126 97.9917 363.081 97.7274C363.035 97.4554 362.952 97.2326 362.831 97.0589C362.71 96.8776 362.544 96.7454 362.333 96.6623C362.129 96.5792 361.864 96.5377 361.54 96.5377H359.455V99.8688H358.039V91.779Z" fill="#F62B6D"/>
<defs>
<filter id="filter0_f_618_140" x="0.660645" y="65.0483" width="94.6204" height="70.0714" filterUnits="userSpaceOnUse" color-interpolation-filters="sRGB">
<feFlood flood-opacity="0" result="BackgroundImageFix"/>
<feBlend mode="normal" in="SourceGraphic" in2="BackgroundImageFix" result="shape"/>
<feGaussianBlur stdDeviation="15" result="effect1_foregroundBlur_618_140"/>
</filter>
<linearGradient id="paint0_linear_618_140" x1="8" y1="5.34172" x2="58.4971" y2="101.053" gradientUnits="userSpaceOnUse">
<stop stop-color="#F62B6D"/>
<stop offset="1" stop-color="#5F41DA"/>
</linearGradient>
</defs>
</svg>
